<svg version="1.1" id="Layer_1" xmlns="http://www.w3.org/2000/svg" xmlns:xlink="http://www.w3.org/1999/xlink" x="0px" y="0px"
	 width="100%" viewBox="0 0 640 464" enable-background="new 0 0 640 464" xml:space="preserve">
<path fill="#000000" opacity="1.000000" stroke="none" 
	d="
M213.650742,246.999878 
	C213.651657,227.174942 213.584167,207.849686 213.673859,188.525177 
	C213.757446,170.518555 224.636459,157.139816 242.240723,153.216217 
	C246.314301,152.308319 250.474533,152.066757 254.643082,152.101898 
	C271.464111,152.243744 288.294617,152.824707 305.103424,152.442184 
	C325.261261,151.983490 345.412079,152.211472 365.564575,152.184143 
	C374.235809,152.172379 382.748688,153.085464 390.366791,158.224503 
	C400.750610,165.229309 406.123291,175.076721 406.212708,187.219864 
	C406.513275,228.033218 406.476807,268.850891 406.266693,309.665344 
	C406.169739,328.502258 391.910980,343.427734 373.121521,344.322510 
	C343.993958,345.709534 314.831512,344.737793 285.684784,344.857758 
	C272.700562,344.911194 259.693939,345.520050 246.726440,344.408844 
	C227.375656,342.750580 213.789246,328.016296 213.680496,308.472900 
	C213.567398,288.149139 213.652512,267.824280 213.650742,246.999878 
M299.963745,197.993088 
	C297.222626,197.816910 295.653015,199.064301 294.905548,201.736862 
	C294.235016,204.134232 293.207123,206.430298 292.366852,208.781769 
	C284.080719,231.970520 275.802429,255.162079 267.516541,278.350922 
	C266.740662,280.522278 266.299500,282.742737 263.043610,282.756317 
	C256.335236,282.784241 256.335785,282.940796 256.338379,289.420410 
	C256.339020,291.086975 256.445953,292.761627 256.318787,294.418365 
	C256.079041,297.541809 257.266815,299.037048 260.563049,299.009796 
	C270.894928,298.924316 281.228027,298.993378 291.560547,298.962280 
	C293.032013,298.957855 294.968628,299.101440 295.337830,297.288635 
	C296.172150,293.192078 296.277374,288.922363 295.383942,284.894775 
	C294.654663,281.606995 291.007996,283.605530 288.911774,282.540192 
	C288.350800,282.255066 287.841736,281.867859 287.344635,281.550385 
	C287.662598,277.972992 289.233612,274.976471 290.153595,271.792145 
	C290.809052,269.523529 292.157440,268.633667 294.520111,268.651306 
	C304.852173,268.728485 315.185059,268.690094 325.517670,268.690857 
	C327.284546,268.690979 328.775604,268.993530 329.397858,271.033813 
	C330.496399,274.635712 331.733826,278.195221 332.936401,281.843079 
	C324.225342,283.295166 324.225433,283.295166 324.236938,292.282867 
	C324.237579,292.782837 324.283447,293.288544 324.225464,293.781860 
	C323.771759,297.641815 325.382172,299.165009 329.334900,299.058899 
	C336.995483,298.853302 344.666473,299.079254 352.331726,298.994904 
	C365.379913,298.851379 363.466095,300.744568 363.671570,286.967773 
	C363.718292,283.835083 362.700592,282.097900 359.308197,282.703857 
	C354.953491,283.481720 353.224121,281.205475 351.886719,277.359192 
	C343.248688,252.517303 334.346252,227.767410 325.675507,202.936722 
	C324.456451,199.445602 322.722015,197.798416 318.861023,197.961502 
	C312.872894,198.214432 306.864868,197.996201 299.963745,197.993088 
z"/>
<path fill="#000000" opacity="1.000000" stroke="none" 
	d="
M305.968811,225.142197 
	C307.467743,222.188217 307.445679,218.945328 310.657776,215.890152 
	C315.051086,228.873108 319.242615,241.259766 323.620392,254.196899 
	C317.776703,255.842377 312.477020,254.976578 307.279419,255.072266 
	C294.049805,255.315918 295.666229,255.101990 299.514984,244.428574 
	C301.769989,238.174957 303.738556,231.818039 305.968811,225.142197 
z"/>
</svg>